<svg xmlns="http://www.w3.org/2000/svg" viewBox="0 0 67 67"><defs><style>.a{fill:#fff;}.b,.d{fill:none;}.b{stroke:#fff;stroke-width:2px;}.c{stroke:none;}</style></defs><g transform="translate(-1078 -892)"><path class="a" d="M122.036,45.659c-1.327,1.328-4.314,2.323-6.969,2.323h-.332c-8.961,0-10.952-6.638-10.952-10.62V26.41h-3.651a.714.714,0,0,1-.664-.664V20.768c0-.664.332-1,1-1.328a9.253,9.253,0,0,0,6.306-8.961c0-1,.332-1.328,1.328-1.328h5.31a.714.714,0,0,1,.664.664h0v8.629h5.974a.714.714,0,0,1,.664.664v6.306a.714.714,0,0,1-.664.664h-6.306v9.956c0,2.655,1.659,3.319,2.655,3.319a4.8,4.8,0,0,0,2.323-.664c.332,0,.664-.332,1-.332s.332.332.664.664L122.036,44C122.368,45,122.368,45.327,122.036,45.659Z" transform="translate(1000.485 897.508)"/><g class="b" transform="translate(1078 892)"><circle class="c" cx="33.5" cy="33.5" r="33.5"/><circle class="d" cx="33.5" cy="33.5" r="32.5"/></g></g></svg>