<svg xmlns="http://www.w3.org/2000/svg" viewBox="0 0 67 67"><defs><style>.a{fill:#fff;}.b,.d{fill:none;}.b{stroke:#fff;stroke-width:2px;}.c{stroke:none;}</style></defs><g transform="translate(-760 -892)"><path class="a" d="M7.488,17.617A32.383,32.383,0,0,0,21.217,31.346l4.576-4.576a1.656,1.656,0,0,1,2.08-.416A21.758,21.758,0,0,0,35.362,27.6a2.084,2.084,0,0,1,2.08,2.08v7.28a2.237,2.237,0,0,1-2.08,2.08A35.332,35.332,0,0,1,0,3.68,2.237,2.237,0,0,1,2.08,1.6H9.36a2.084,2.084,0,0,1,2.08,2.08,23.557,23.557,0,0,0,1.248,7.488,2.562,2.562,0,0,1-.416,2.08Z" transform="translate(775 905.728)"/><g class="b" transform="translate(760 892)"><circle class="c" cx="33.5" cy="33.5" r="33.5"/><circle class="d" cx="33.5" cy="33.5" r="32.5"/></g></g></svg>