<svg xmlns="http://www.w3.org/2000/svg"><symbol id="facebook" viewBox="0 0 24 24"><path d="M21.69 1.51H2.31a.82.82 0 0 0-.8.8v19.38a.82.82 0 0 0 .8.8h10.41v-8H10v-3.1h2.7V9.1a3.76 3.76 0 0 1 4-4.12c.81 0 1.61 0 2.41.12v2.79h-1.62c-1.29 0-1.55.61-1.55 1.52v2H19l-.4 3.12h-2.66v8h5.75a.82.82 0 0 0 .8-.8V2.31a.82.82 0 0 0-.8-.8z"/></symbol><symbol id="instagram" viewBox="0 0 24 24"><path d="M12.11 9.48a2.41 2.41 0 0 0 0 4.82 2.41 2.41 0 0 0 0-4.82z"/><path d="M17.75 7.62a2.38 2.38 0 0 0-.54-.83 2.29 2.29 0 0 0-.83-.54A4.13 4.13 0 0 0 15 6H9.19a4.08 4.08 0 0 0-1.34.25 2.21 2.21 0 0 0-.85.54 2.25 2.25 0 0 0-.54.83A3.89 3.89 0 0 0 6.23 9v5.84a3.84 3.84 0 0 0 .25 1.34A2.21 2.21 0 0 0 7 17a2.29 2.29 0 0 0 .83.54 3.83 3.83 0 0 0 1.34.24c.76 0 1 .05 2.92.05s2.16 0 2.93-.05a4.11 4.11 0 0 0 1.34-.24 2.29 2.29 0 0 0 .83-.54 2.33 2.33 0 0 0 .54-.84 4.08 4.08 0 0 0 .27-1.35V9a4.14 4.14 0 0 0-.25-1.38zm-5.64 8a3.71 3.71 0 1 1 3.72-3.71 3.71 3.71 0 0 1-3.72 3.69zM16 8.89a.87.87 0 0 1 0-1.73.87.87 0 1 1 0 1.73z"/><path d="M21.69 1.51H2.31a.82.82 0 0 0-.8.8v19.38a.82.82 0 0 0 .8.8h19.38a.82.82 0 0 0 .8-.8V2.31a.82.82 0 0 0-.8-.8zm-2.38 13.36a5.61 5.61 0 0 1-.31 1.76 3.61 3.61 0 0 1-.84 1.28 3.54 3.54 0 0 1-1.28.83 5.49 5.49 0 0 1-1.75.34h-6a5.49 5.49 0 0 1-1.75-.34 3.71 3.71 0 0 1-2.12-2.11 5.33 5.33 0 0 1-.33-1.76v-6a5.28 5.28 0 0 1 .33-1.76 3.65 3.65 0 0 1 .84-1.24A3.49 3.49 0 0 1 7.38 5a5.23 5.23 0 0 1 1.75-.3h6a5.22 5.22 0 0 1 1.72.3 3.69 3.69 0 0 1 1.29.84A3.63 3.63 0 0 1 19 7.15a5.55 5.55 0 0 1 .34 1.76v3c0 2 0 2.19-.03 2.96z"/></symbol><symbol id="email" viewBox="0 0 24 24"><path d="M20 4H4a2 2 0 0 0-2 2v12a2 2 0 0 0 2 2h16a2 2 0 0 0 2-2V6a2 2 0 0 0-2-2zm0 4l-8 5-8-5V6l8 5 8-5z"/></symbol><symbol id="snapchat" viewBox="0 0 24 24"><path d="M21.69 1.51H2.31a.82.82 0 0 0-.8.8v19.38a.82.82 0 0 0 .8.8h19.38a.82.82 0 0 0 .8-.8V2.31a.82.82 0 0 0-.8-.8zm-2.3 14.32c-.15.35-.78.61-1.94.79a1.1 1.1 0 0 0-.11.35c0 .11-.05.22-.09.34a.33.33 0 0 1-.34.26h-.33a4.25 4.25 0 0 0-.79-.09 3.43 3.43 0 0 0-.56 0 2.73 2.73 0 0 0-1.07.55 3.27 3.27 0 0 1-2 .8h-.18a3.39 3.39 0 0 1-2-.8 2.79 2.79 0 0 0-1.05-.55 3.64 3.64 0 0 0-.57 0 3.48 3.48 0 0 0-.79.09 1.88 1.88 0 0 1-.33.05.35.35 0 0 1-.36-.26A3 3 0 0 1 6.7 17a2.42 2.42 0 0 0-.1-.36c-1.16-.17-1.8-.44-1.95-.79a.31.31 0 0 1 0-.13.32.32 0 0 1 .25-.33 4.36 4.36 0 0 0 3-2.48.64.64 0 0 0 .07-.54c-.11-.28-.54-.41-.82-.5l-.22-.08c-.69-.27-.78-.58-.74-.79a.73.73 0 0 1 .72-.5.59.59 0 0 1 .23 0 1.65 1.65 0 0 0 .68.19.59.59 0 0 0 .18-.05v-.36a7.43 7.43 0 0 1 .19-3 3.93 3.93 0 0 1 3.65-2.36h.3a4 4 0 0 1 3.67 2.35 7.29 7.29 0 0 1 .19 3v.32a.51.51 0 0 0 .25.06 1.75 1.75 0 0 0 .63-.18.72.72 0 0 1 .29-.06.77.77 0 0 1 .3.06.6.6 0 0 1 .45.52c0 .28-.24.52-.74.72l-.22.08c-.28.09-.71.22-.83.49a.64.64 0 0 0 .08.54 4.36 4.36 0 0 0 3 2.48.33.33 0 0 1 .26.32.57.57 0 0 1-.08.21z"/></symbol><symbol id="warning" viewBox="0 0 24 24"><path fill="none" d="M0 0h24v24H0z"/><path d="M1 21h22L12 2 1 21zm12-3h-2v-2h2v2zm0-4h-2v-4h2v4z"/></symbol><symbol id="twitter" viewBox="0 0 24 24"><path d="M21.69 1.51H2.31a.82.82 0 0 0-.8.8v19.38a.82.82 0 0 0 .8.8h19.38a.82.82 0 0 0 .8-.8V2.31a.82.82 0 0 0-.8-.8zm-4.48 7.82v.35a7.6 7.6 0 0 1-7.65 7.65 7.7 7.7 0 0 1-4.12-1.2h.64A5.39 5.39 0 0 0 9.43 15a2.68 2.68 0 0 1-2.51-1.87 2.74 2.74 0 0 0 1.21 0A2.7 2.7 0 0 1 6 10.46a2.72 2.72 0 0 0 1.21.34 2.7 2.7 0 0 1-.83-3.59A7.63 7.63 0 0 0 11.9 10a3.27 3.27 0 0 1-.07-.62 2.69 2.69 0 0 1 4.65-1.84 5 5 0 0 0 1.71-.65A2.66 2.66 0 0 1 17 8.36a5.5 5.5 0 0 0 1.54-.42 5.37 5.37 0 0 1-1.33 1.39z"/></symbol><symbol id="tumblr" viewBox="0 0 24 24"><path d="M21.69 1.51H2.31a.82.82 0 0 0-.8.8v19.38a.82.82 0 0 0 .8.8h19.38a.82.82 0 0 0 .8-.8V2.31a.82.82 0 0 0-.8-.8zm-6.23 15.4a3.3 3.3 0 0 1-2.13.72h-.09a3 3 0 0 1-3.34-3.2v-3.27H8.82a.23.23 0 0 1-.23-.23V9.39A.39.39 0 0 1 8.85 9a2.87 2.87 0 0 0 1.91-2.66c0-.25.15-.37.37-.37h1.61a.22.22 0 0 1 .23.22v2.64h1.89a.23.23 0 0 1 .22.23v1.86a.23.23 0 0 1-.22.23H13v3c0 .76.5 1 .81 1a2.39 2.39 0 0 0 .74-.16.49.49 0 0 1 .29-.05.23.23 0 0 1 .16.18l.5 1.46c0 .12.04.24-.04.33z"/></symbol><symbol id="phone" viewBox="0 0 24 24"><path d="M6.62 10.79a15.15 15.15 0 0 0 6.59 6.59l2.2-2.2a1 1 0 0 1 1-.24 11.41 11.41 0 0 0 3.57.57 1 1 0 0 1 1 1V20a1 1 0 0 1-1 1A17 17 0 0 1 3 4a1 1 0 0 1 1-1h3.5a1 1 0 0 1 1 1 11.36 11.36 0 0 0 .57 3.57 1 1 0 0 1-.25 1z"/></symbol></svg>